<svg xmlns="http://www.w3.org/2000/svg" xmlns:xlink="http://www.w3.org/1999/xlink" version="1.1" x="0px" y="0px" viewBox="0 0 139.765 97.28875000000001" enable-background="new 0 0 139.765 77.831" xml:space="preserve"><g><g><path fill="#000000" d="M114.318,26.938c-3.587,0-7.001,0.75-10.1,2.096l-7.827-14.104c-0.006-0.011-0.016-0.019-0.021-0.029    c-0.1-0.174-0.22-0.336-0.36-0.482c-0.028-0.029-0.059-0.052-0.087-0.079c-0.115-0.109-0.24-0.207-0.377-0.295    c-0.051-0.032-0.102-0.062-0.155-0.091c-0.047-0.026-0.089-0.059-0.139-0.082c-0.095-0.043-0.192-0.068-0.289-0.1    c-0.044-0.014-0.086-0.033-0.131-0.045c-0.199-0.051-0.398-0.078-0.598-0.08c-0.01,0-0.019-0.004-0.029-0.004H41.063l2.206-7.295    l7.415-1.391c1.357-0.254,2.251-1.561,1.997-2.918c-0.254-1.355-1.565-2.252-2.917-1.996l-8.908,1.67    c-0.917,0.172-1.663,0.84-1.933,1.734L35.31,15.395l-0.984,2.909c-0.085,0.18-0.147,0.365-0.187,0.555L31.185,27.6    c-1.846-0.428-3.766-0.661-5.739-0.661C11.415,26.938,0,38.354,0,52.386s11.415,25.445,25.446,25.445    c14.032,0,25.447-11.414,25.447-25.445c0-10.298-6.153-19.181-14.973-23.182l1.899-5.619l38.113,30.746    c0.016,0.013,0.034,0.021,0.05,0.034c0.042,0.032,0.088,0.06,0.132,0.089c0.089,0.061,0.181,0.115,0.277,0.164    c0.022,0.011,0.041,0.026,0.063,0.037c0.024,0.012,0.051,0.015,0.076,0.025c0.115,0.049,0.232,0.088,0.353,0.118    c0.045,0.012,0.088,0.026,0.133,0.035c0.157,0.031,0.316,0.051,0.477,0.051c0.002,0,0.004,0.001,0.006,0.001h0c0,0,0,0,0.001,0    h11.493c1.26,12.862,12.135,22.945,25.322,22.945c14.031,0,25.447-11.414,25.447-25.445S128.349,26.938,114.318,26.938z     M45.893,52.386c0,11.273-9.172,20.445-20.447,20.445C14.172,72.831,5,63.659,5,52.386c0-11.275,9.172-20.447,20.446-20.447    c1.415,0,2.796,0.146,4.13,0.42l-6.499,19.227c-0.442,1.309,0.26,2.727,1.568,3.168c0.265,0.09,0.535,0.133,0.801,0.133    c1.042,0,2.016-0.658,2.368-1.699l6.49-19.201C41.149,37.294,45.893,44.287,45.893,52.386z M102.299,35.88l7.772,14.006H94.041    C94.746,44.141,97.84,39.137,102.299,35.88z M88.996,49.886h-7.588l13.004-28.219l5.439,9.801    C93.869,35.619,89.743,42.263,88.996,49.886z M90.3,18.644L76.575,48.425L39.658,18.644H90.3z M114.318,72.831    c-10.426,0-19.038-7.85-20.277-17.945h20.278c0.886,0,1.705-0.469,2.154-1.232s0.461-1.707,0.032-2.48l-9.842-17.733    c2.367-0.96,4.948-1.501,7.655-1.501c11.274,0,20.447,9.172,20.447,20.447C134.765,63.659,125.592,72.831,114.318,72.831z"/><path fill="#000000" d="M81.122,8.897h13.083c1.381,0,2.5-1.119,2.5-2.5s-1.119-2.5-2.5-2.5H81.122c-1.381,0-2.5,1.119-2.5,2.5    S79.741,8.897,81.122,8.897z"/></g></g><text x="0" y="92.831" fill="#000000" font-size="5px" font-weight="bold" font-family="'Helvetica Neue', Helvetica, Arial-Unicode, Arial, Sans-serif">Created by Jean Yashu</text><text x="0" y="97.831" fill="#000000" font-size="5px" font-weight="bold" font-family="'Helvetica Neue', Helvetica, Arial-Unicode, Arial, Sans-serif">from the Noun Project</text></svg>